# AST/ASF file generated using VICON BodyLanguage
# -----------------------------------------------
:version 1.10
:name VICON
:units
  mass 1.0
  length 0.45
  angle deg
:documentation
   .ast/.asf automatically generated from VICON data using
   VICON BodyBuilder and BodyLanguage model FoxedUp or BRILLIANT.MOD
:root
   order TX TY TZ RX RY RZ
   axis XYZ
   position 0 0 0  
   orientation 0 -0 0 
:bonedata
  begin
     id 1 
     name lhipjoint
     direction 0.515797 -0.759363 0.396637 
     length 2.47888 
     axis 0 -0 0  XYZ
  end
  begin
     id 2 
     name lfemur
     direction 0.34202 -0.939693 0  
     length 6.81885  
     axis 0 -0 20  XYZ
    dof rx ry rz
    limits (-160.0 20.0)
           (-70.0 70.0)
           (-60.0 70.0)
  end
  begin
     id 3 
     name ltibia
     direction 0.342037 -0.939687 0   
     length 7.89258   
     axis 0 -0 20   XYZ
    dof rx
    limits (-10.0 170.0)
  end
  begin
     id 4 
     name lfoot
     direction 0.173497 -0.476678 0.861787   
     length 2.51543   
     axis -90 -1.13533e-015 20   XYZ
    dof rx rz
    limits (-45.0 90.0)
           (-70.0 20.0)
  end
  begin
     id 5 
     name ltoes
     direction 1.53564e-011 -4.21897e-011 1   
     length 1.21388   
     axis -90 -1.13533e-015 20   XYZ
    dof rx
    limits (-90.0 20.0)
  end
  begin
     id 6 
     name rhipjoint
     direction -0.489454 -0.772941 0.403729   
     length 2.43534  
     axis 0 -0 0  XYZ 
  end
  begin
     id 7 
     name rfemur
     direction -0.34202 -0.939693 0   
     length 7.10357   
     axis 0 -0 -20   XYZ
    dof rx ry rz
    limits (-160.0 20.0)
           (-70.0 70.0)
           (-70.0 60.0)
  end
  begin
     id 8 
     name rtibia
     direction -0.34202 -0.939693 0   
     length 9.16127   
     axis 0 -0 -20   XYZ
    dof rx
    limits (-10.0 170.0)
 end
 begin
     id 9 
     name rfoot
     direction -0.270974 -0.748671 0.605033   
     length 1.74894  
     axis -90 1.13533e-015 -20   XYZ
    dof rx rz
    limits (-45.0 90.0)
           (-20.0 70.0)
  end
  begin
     id 10 
     name rtoes
     direction -1.53557e-011 -4.21759e-011 1   
     length 0.787585   
     axis -90 1.13533e-015 -20   XYZ
    dof rx
    limits (-90.0 20.0)
  end
  begin
     id 11 
     name lowerback
     direction -0.0140249 0.999561 0.0260968   
     length 2.16963   
     axis 0 -0 0   XYZ
    dof rx ry rz
    limits (-20.0 45.0)
           (-30.0 30.0)
           (-30.0 30.0)
  end
  begin
     id 12 
     name upperback
     direction 0.00860018 0.999959 -0.002711   
     length 2.1726   
     axis 0 -0 0   XYZ
    dof rx ry rz
    limits (-20.0 45.0)
           (-30.0 30.0)
           (-30.0 30.0)
  end
  begin
     id 13 
     name thorax
     direction 0.015211 0.999782 -0.0143191   
     length 2.17061   
     axis 0 -0 0   XYZ
    dof rx ry rz
    limits (-20.0 45.0)
           (-30.0 30.0)
           (-30.0 30.0)
  end
  begin
     id 14 
     name lowerneck
     direction -0.0140143 0.999447 0.030145   
     length 2.26749   
     axis 0 -0 0   XYZ
    dof rx ry rz
    limits (-20.0 45.0)
           (-30.0 30.0)
           (-30.0 30.0)
  end
  begin
     id 15 
     name upperneck
     direction 0.118062 0.961438 -0.248392   
     length 2.22728   
     axis 0 -0 0   XYZ
    dof rx ry rz
    limits (-20.0 45.0)
           (-30.0 30.0)
           (-30.0 30.0)
  end
  begin
     id 16
     name head
     direction 0.0431885 0.9954 -0.085514  
     length 2.28786  
     axis 0 -0 0   XYZ
    dof rx ry rz
    limits (-20.0 45.0)
           (-30.0 30.0)
           (-30.0 30.0)
  end
  begin
     id 17 
     name lclavicle
     direction 0.912126 0.409548 0.0172323  
     length 4.31571  
     axis 0 -0 0   XYZ
    dof ry rz
    limits (-20.0 10.0)
           (0.0 20.0)
  end
  begin
     id 18 
     name lhumerus
     direction 1 -4.48977e-011 1.93091e-027   
     length 5.13658   
     axis 180 -30 -90   XYZ
    dof rx ry rz
    limits (-60.0 90.0)
           (-90.0 90.0)
           (-90.0 90.0)
  end
  begin
     id 19
     name lradius
     direction 1 -4.48916e-011 6.84018e-027   
     length 3.22473   
     axis 180 -30 -90   XYZ
    dof rx
    limits (-10.0 170.0)
  end
  begin
     id 20
     name lwrist
     direction 1 -4.48987e-011 7.01981e-027   
     length 1.61236   
     axis -4.37994e-015 90 90   XYZ
    dof ry
    limits (-180.0 0.0)
 end
  begin
     id 21 
     name lhand
     direction 1 -4.49037e-011 1.40335e-026   
     length 0.936406   
     axis -8.96029e-015 90 90   XYZ
    dof rx rz
    limits (-90.0 90.0)
           (-45.0 45.0)
  end
  begin
     id 22 
     name lfingers
     direction 1 -4.48886e-011 2.8104e-026   
     length 0.754955   
     axis -1.79203e-014 90 90   XYZ
    dof rx
    limits (0.0 90.0)
  end
  begin
     id 23
     name lthumb
     direction 0.707107 -6.34937e-011 0.707107   
     length 1.08397   
     axis -90 45 -4.48555e-014   XYZ
    dof rx rz
    limits (-45.0 45.0)
           (-45.0 45.0)
  end
  begin
     id 24 
     name rclavicle
     direction -0.947962 0.317997 0.0156638   
     length 4.86918  
     axis 0 -0 0   XYZ 
    dof ry rz
    limits (-10.0 20.0)
           (-20.0 0.0)
  end
  begin
     id 25 
     name rhumerus
     direction -1 -4.48951e-011 2.80534e-018  
     length 5.60911   
     axis 180 30 90   XYZ
    dof rx ry rz
    limits (-90.0 60.0)
           (-90.0 90.0)
           (-90.0 90.0)
  end
  begin
     id 26 
     name rradius
     direction -1 -4.4898e-011 2.11315e-027   
     length 3.38704   
     axis 180 30 90   XYZ
    dof rx
    limits (-10.0 170.0)
  end
  begin
     id 27 
     name rwrist
     direction -1 -4.48933e-011 7.02314e-027   
     length 1.69352   
     axis -4.37994e-015 -90 -90   XYZ
    dof ry
    limits (-180.0 0.0)
  end
  begin
     id 28
     name rhand
     direction -1 -4.48937e-011 1.40458e-026   
     length 0.755878   
     axis -8.96029e-015 -90 -90   XYZ
    dof rx rz
    limits (-90.0 90.0)
           (-45.0 45.0)
  end
  begin
     id 29
     name rfingers
     direction -1 -4.4901e-011 2.80737e-026   
     length 0.609409   
     axis -1.79203e-014 -90 -90   XYZ
    dof rx
    limits (0.0 90.0)
  end
  begin
     id 30
     name rthumb
     direction -0.707107 -6.34968e-011 0.707107   
     length 0.874992   
     axis -90 -45 4.48555e-014   XYZ
    dof rx rz
    limits (-45.0 45.0)
           (-45.0 45.0)
  end
:hierarchy
  begin
    root lhipjoint rhipjoint lowerback
    lhipjoint lfemur
    lfemur ltibia
    ltibia lfoot
    lfoot ltoes
    rhipjoint rfemur
    rfemur rtibia
    rtibia rfoot
    rfoot rtoes
    lowerback upperback
    upperback thorax
    thorax lowerneck lclavicle rclavicle
    lowerneck upperneck
    upperneck head
    lclavicle lhumerus
    lhumerus lradius
    lradius lwrist
    lwrist lhand lthumb
    lhand lfingers
    rclavicle rhumerus
    rhumerus rradius
    rradius rwrist
    rwrist rhand rthumb
    rhand rfingers
  end

#!OML:ASF C:\ViconDB\ViconDB\414\Spring2016\041811\Spring2016.ASF
:FULLY-SPECIFIED
:DEGREES
87
root 12.8846 18.131 12.0821 -177.706 -5.65246 -177.92
lowerback -1.36405 1.01425 -2.0108
upperback 0.775814 1.38262 0.593668
thorax 1.4974 0.666183 1.77119
lowerneck -14.395 2.57892 -3.51626
upperneck 24.5139 0.458831 10.9605
head 10.1154 0.69564 4.47984
rclavicle -4.74598e-015 2.38542e-015
rhumerus -46.1233 -21.3695 -72.9259
rradius 40.7055
rwrist 38.5828
rhand -33.3943 -12.9709
rfingers 7.12502
rthumb -6.59491 -42.8482
lclavicle -4.74598e-015 2.38542e-015
lhumerus -40.7865 3.25079 77.9855
lradius 26.89
lwrist -33.42
lhand -31.57 16.9485
lfingers 7.12502
lthumb -4.83354 46.8733
rfemur 168.369 50.0122 -168.387
rtibia 28.6229
rfoot -56.2892 -45.6966
rtoes 1.7334e-013
lfemur -9.42037 -9.40704 -12.624
ltibia 26.856
lfoot -22.0489 2.36207
ltoes 2.68359e-015
88
root 12.8816 18.1304 12.078 -177.688 -5.59593 -178.015
lowerback -1.43072 1.04206 -2.0477
upperback 0.751224 1.42298 0.534152
thorax 1.50839 0.686558 1.73292
lowerneck -14.3315 2.57355 -3.46184
upperneck 24.5413 0.41631 10.9814
head 10.1174 0.677643 4.47178
rclavicle -4.04651e-014 8.94531e-015
rhumerus -46.224 -21.4887 -72.8835
rradius 40.4996
rwrist 38.6375
rhand -33.1712 -13.0393
rfingers 7.12502
rthumb -6.37945 -42.9232
lclavicle -4.04651e-014 8.94531e-015
lhumerus -40.782 2.83817 78.0878
lradius 27.204
lwrist -33.0597
lhand -31.8958 17.3484
lfingers 7.12502
lthumb -5.14813 47.2659
rfemur 168.404 50.2271 -168.459
rtibia 28.6361
rfoot -56.6423 -45.6963
rtoes 2.62396e-014
lfemur -9.37618 -9.51727 -12.7675
ltibia 26.8243
lfoot -22.1012 2.55278
ltoes 7.13637e-014
89
root 12.8826 18.1305 12.0718 -177.674 -5.6128 -178.016
lowerback -1.5381 1.08307 -2.02031
upperback 0.728247 1.47914 0.553996
thorax 1.54273 0.714713 1.7414
lowerneck -14.3511 2.53387 -3.78928
upperneck 24.6624 0.328499 11.3048
head 10.1664 0.63645 4.64039
rclavicle -1.95057e-015 -3.57812e-015
rhumerus -46.3448 -21.5705 -72.7432
rradius 40.3563
rwrist 38.5132
rhand -33.1291 -13.1291
rfingers 7.12502
rthumb -6.33882 -43.0142
lclavicle -1.95057e-015 -3.57812e-015
lhumerus -40.7426 2.49438 78.2662
lradius 27.4885
lwrist -32.9077
lhand -32.0802 17.537
lfingers 7.12502
lthumb -5.32613 47.4501
rfemur 168.404 50.4379 -168.438
rtibia 28.6562
rfoot -56.8694 -45.6436
rtoes 4.29375e-014
lfemur -9.35283 -9.60824 -12.7722
ltibia 26.7916
lfoot -22.1316 2.6232
ltoes 2.5345e-014
90
root 12.885 18.1304 12.0635 -177.689 -5.63244 -177.989
lowerback -1.62333 1.09072 -1.99952
upperback 0.711442 1.49062 0.55902
thorax 1.57319 0.720507 1.7369
lowerneck -14.3037 2.5118 -3.80314
upperneck 24.718 0.277358 11.327
head 10.1816 0.6088 4.64537
rclavicle -1.44864e-014 1.0138e-014
rhumerus -46.4663 -21.6732 -72.6361
rradius 40.1912
rwrist 38.7717
rhand -33.1249 -13.2281
rfingers 7.12502
rthumb -6.33483 -43.1134
lclavicle -1.44864e-014 1.0138e-014
lhumerus -40.7297 2.27351 78.3135
lradius 27.7475
lwrist -32.7967
lhand -32.3727 17.5874
lfingers 7.12502
lthumb -5.60855 47.4931
rfemur 168.337 50.5717 -168.437
rtibia 28.6737
rfoot -57.0297 -45.5871
rtoes 5.80451e-014
lfemur -9.29376 -9.68731 -12.7405
ltibia 26.7711
lfoot -22.1674 2.66574
ltoes -2.03754e-014
91
root 12.8914 18.1301 12.0531 -177.678 -5.70438 -177.961
lowerback -1.75512 1.07149 -2.03366
upperback 0.692344 1.46828 0.578394
thorax 1.62723 0.708511 1.778
lowerneck -14.2274 2.50063 -3.79147
upperneck 24.7101 0.247807 11.3411
head 10.1666 0.593292 4.64228
rclavicle -2.34193e-014 4.57205e-015
rhumerus -46.5678 -21.7462 -72.5695
rradius 40.0656
rwrist 38.8048
rhand -33.0255 -13.2394
rfingers 7.12502
rthumb -6.23884 -43.1275
lclavicle -2.34193e-014 4.57205e-015
lhumerus -40.702 2.0236 78.4327
lradius 28.0802
lwrist -32.5979
lhand -32.5061 18.3238
lfingers 7.12502
lthumb -5.73737 48.2262
rfemur 168.284 50.7723 -168.409
rtibia 28.6935
rfoot -57.1684 -45.5558
rtoes -8.74653e-015
lfemur -9.27472 -9.69914 -12.6852
ltibia 26.7466
lfoot -22.1752 2.6237
ltoes 1.02374e-014
92
root 12.8886 18.1286 12.0436 -177.709 -5.71815 -178.06
lowerback -1.82031 1.0689 -2.09296
upperback 0.681939 1.46818 0.555005
thorax 1.65232 0.707823 1.78856
lowerneck -14.1145 2.49046 -3.79388
upperneck 24.6836 0.238979 11.3139
head 10.1356 0.581447 4.62757
rclavicle 2.61899e-014 -1.51076e-014
rhumerus -46.689 -21.7496 -72.5081
rradius 39.964
rwrist 38.9217
rhand -32.8673 -13.2203
rfingers 7.12502
rthumb -6.08606 -43.1129
lclavicle 2.61899e-014 -1.51076e-014
lhumerus -40.6995 1.9457 78.4345
lradius 28.3525
lwrist -32.4563
lhand -32.6517 18.2845
lfingers 7.12502
lthumb -5.87791 48.183
rfemur 168.146 51.0702 -168.603
rtibia 28.7337
rfoot -57.6081 -45.5009
rtoes -3.57812e-014
lfemur -9.15383 -9.80392 -12.8214
ltibia 26.7008
lfoot -22.227 2.69533
ltoes -3.3197e-014
93
root 12.8896 18.1279 12.0334 -177.734 -5.71406 -178.062
lowerback -1.93531 1.07012 -2.0909
upperback 0.686551 1.47239 0.551549
thorax 1.72156 0.709103 1.78664
lowerneck -14.05 2.49321 -3.77815
upperneck 24.6807 0.234514 11.3106
head 10.1225 0.57698 4.62107
rclavicle -1.30452e-014 1.59028e-015
rhumerus -46.7683 -21.8402 -72.4437
rradius 39.8697
rwrist 38.836
rhand -32.7411 -13.0009
rfingers 7.12502
rthumb -5.96428 -42.8969
lclavicle -1.30452e-014 1.59028e-015
lhumerus -40.6465 1.95394 78.3897
lradius 28.458
lwrist -32.3311
lhand -32.9702 17.8544
lfingers 7.12502
lthumb -6.18544 47.7441
rfemur 168.047 51.213 -168.657
rtibia 28.7605
rfoot -57.8084 -45.4689
rtoes 5.00937e-014
lfemur -9.06089 -9.82686 -12.8301
ltibia 26.6696
lfoot -22.2648 2.71411
ltoes 5.56597e-015
